<?xml version="1.0" encoding="UTF-8" standalone="no"?>
<!-- Created with Inkscape (http://www.inkscape.org/) -->

<svg
   width="1920"
   height="1080"
   viewBox="0 0 508 200"
   version="1.1"
   id="svg1"
   inkscape:export-filename="Logo.png"
   inkscape:export-xdpi="92.36364"
   inkscape:export-ydpi="92.36364"
   xmlns:inkscape="http://www.inkscape.org/namespaces/inkscape"
   xmlns:sodipodi="http://sodipodi.sourceforge.net/DTD/sodipodi-0.dtd"
   xmlns:xlink="http://www.w3.org/1999/xlink"
   xmlns="http://www.w3.org/2000/svg"
   xmlns:svg="http://www.w3.org/2000/svg">
  <sodipodi:namedview
     id="namedview1"
     pagecolor="#ffffff"
     bordercolor="#000000"
     borderopacity="0.25"
     inkscape:showpageshadow="2"
     inkscape:pageopacity="0.0"
     inkscape:pagecheckerboard="0"
     inkscape:deskcolor="#d1d1d1"
     inkscape:document-units="mm"
     inkscape:zoom="1.0267829"
     inkscape:cx="340.87049"
     inkscape:cy="504.00137"
     inkscape:window-width="1920"
     inkscape:window-height="1017"
     inkscape:window-x="-8"
     inkscape:window-y="-8"
     inkscape:window-maximized="1"
     inkscape:current-layer="layer1">
    <inkscape:page
       x="0"
       y="0"
       width="508"
       height="285.75"
       id="page2"
       margin="0"
       bleed="0" />
  </sodipodi:namedview>
  <defs
     id="defs1" />
  <g
     inkscape:label="Layer 1"
     inkscape:groupmode="layer"
     id="layer1">
    <g
       inkscape:label="Delaunay"
       id="g14"
       style="fill:#ff3232;fill-opacity:1;stroke:none;stroke-width:0.997002;stroke-dasharray:none"
       transform="matrix(1.6822428,0,0,1.6107384,103.79066,-29.620806)">
      <path
         d="m 57,95.0625 31.875,-20 L 57,50.375 Z"
         style="fill:#ff3232;fill-opacity:1;stroke:none;stroke-width:0.997002;stroke-linecap:round;stroke-linejoin:round;stroke-dasharray:none"
         id="path9" />
      <path
         d="M 23.875,75.063 57,95.0625 V 50.375 Z"
         style="fill:#f53c3d;fill-opacity:1;stroke:none;stroke-width:0.997002;stroke-linecap:round;stroke-linejoin:round;stroke-dasharray:none"
         id="path10" />
      <path
         d="M 57,95.0625 88.875,114.75 V 75.0625 Z"
         style="fill:#fb3429;fill-opacity:1;stroke:none;stroke-width:0.997002;stroke-linecap:round;stroke-linejoin:round;stroke-dasharray:none"
         id="path11" />
      <path
         d="M 23.875,114.75 57,95.0625 23.875,75.063 Z"
         style="fill:#ff3238;fill-opacity:1;stroke:none;stroke-width:0.997002;stroke-linecap:round;stroke-linejoin:round;stroke-dasharray:none"
         id="path12" />
      <path
         d="m 57,139.75 31.875,-25 L 57,95.0625 Z"
         style="fill:#ff313f;fill-opacity:1;stroke:none;stroke-width:0.997002;stroke-linecap:round;stroke-linejoin:round;stroke-dasharray:none"
         id="path13" />
      <path
         d="M 23.875,114.75 57,139.75 V 95.0625 Z"
         style="fill:#fb5543;fill-opacity:1;stroke:none;stroke-width:0.997002;stroke-linecap:round;stroke-linejoin:round;stroke-dasharray:none"
         id="path14" />
    </g>
    <g
       inkscape:label="Delaunay"
       id="g20"
       transform="matrix(1.6822428,0,0,1.6107384,213.0022,-29.620886)"
       style="stroke:#272727;stroke-width:0.997002;stroke-dasharray:none;stroke-opacity:1">
      <path
         d="m 57,95.0625 31.875,-20 L 57,50.375 Z"
         style="fill:none;stroke:#272727;stroke-width:0.997002;stroke-linecap:round;stroke-linejoin:round;stroke-dasharray:none;stroke-opacity:1"
         id="path15" />
      <path
         d="M 23.875,75.063 57,95.0625 V 50.375 Z"
         style="fill:none;stroke:#272727;stroke-width:0.997002;stroke-linecap:round;stroke-linejoin:round;stroke-dasharray:none;stroke-opacity:1"
         id="path16" />
      <path
         d="M 57,95.0625 88.875,114.75 V 75.0625 Z"
         style="fill:none;stroke:#272727;stroke-width:0.997002;stroke-linecap:round;stroke-linejoin:round;stroke-dasharray:none;stroke-opacity:1"
         id="path17" />
      <path
         d="M 23.875,114.75 57,95.0625 23.875,75.063 Z"
         style="fill:none;stroke:#272727;stroke-width:0.997002;stroke-linecap:round;stroke-linejoin:round;stroke-dasharray:none;stroke-opacity:1"
         id="path18" />
      <path
         d="m 57,139.75 31.875,-25 L 57,95.0625 Z"
         style="fill:none;stroke:#272727;stroke-width:0.997002;stroke-linecap:round;stroke-linejoin:round;stroke-dasharray:none;stroke-opacity:1"
         id="path19" />
      <path
         d="M 23.875,114.75 57,139.75 V 95.0625 Z"
         style="fill:none;stroke:#272727;stroke-width:0.997002;stroke-linecap:round;stroke-linejoin:round;stroke-dasharray:none;stroke-opacity:1"
         id="path20" />
    </g>
    <g
       inkscape:label="Delaunay"
       id="g52"
       style="fill:#ff0000;fill-opacity:1;stroke:#272727;stroke-width:0.997002;stroke-dasharray:none;stroke-opacity:1"
       transform="matrix(1.6822428,0,0,1.6107384,103.79066,-29.620806)">
      <path
         d="m 57,95.0625 31.875,-20 L 57,50.375 Z"
         style="fill:#ea0e1f;fill-opacity:1;stroke:#37312c;stroke-width:0.997002;stroke-linecap:round;stroke-linejoin:round;stroke-dasharray:none;stroke-opacity:1"
         id="path47" />
      <path
         d="M 23.875,75.063 57,95.0625 V 50.375 Z"
         style="fill:#ff0000;fill-opacity:1;stroke:#272727;stroke-width:0.997002;stroke-linecap:round;stroke-linejoin:round;stroke-dasharray:none;stroke-opacity:1"
         id="path48" />
      <path
         d="M 57,95.0625 88.875,114.75 V 75.0625 Z"
         style="fill:#ed2946;fill-opacity:1;stroke:#403330;stroke-width:0.997002;stroke-linecap:round;stroke-linejoin:round;stroke-dasharray:none;stroke-opacity:1"
         id="path49" />
      <path
         d="M 23.875,114.75 57,95.0625 23.875,75.063 Z"
         style="fill:#ff0000;fill-opacity:1;stroke:#272727;stroke-width:0.997002;stroke-linecap:round;stroke-linejoin:round;stroke-dasharray:none;stroke-opacity:1"
         id="path50" />
      <path
         d="m 57,139.75 31.875,-25 L 57,95.0625 Z"
         style="fill:#f2360f;fill-opacity:1;stroke:#413133;stroke-width:0.997002;stroke-linecap:round;stroke-linejoin:round;stroke-dasharray:none;stroke-opacity:1"
         id="path51" />
      <path
         d="M 23.875,114.75 57,139.75 V 95.0625 Z"
         style="fill:#fe0100;fill-opacity:1;stroke:#272727;stroke-width:0.997002;stroke-linecap:round;stroke-linejoin:round;stroke-dasharray:none;stroke-opacity:1"
         id="path52" />
    </g>
    <use
       x="0"
       y="0"
       xlink:href="#g14"
       id="use52" />
    <use
       x="0"
       y="0"
       xlink:href="#g14"
       id="use47" />
    <path
       style="fill:#ffffff;fill-opacity:1;stroke:none;stroke-width:5.63905e-05;stroke-dasharray:none;stroke-opacity:1"
       d="m 172.13871,107.45203 c -15.09153,-8.723715 -27.50557,-15.988505 -27.58672,-16.143945 -0.0812,-0.15546 12.26647,-9.141527 27.43918,-19.96906 l 27.5867,-19.686419 0.079,17.818513 c 0.0435,9.800179 0.0435,25.923846 0,35.830381 l -0.079,18.01187 z"
       id="path61" />
    <path
       style="fill:#ffffff;fill-opacity:1;stroke:none;stroke-width:5.63905e-05;stroke-dasharray:none;stroke-opacity:1"
       d="m 199.73113,87.464528 c 0,-28.465707 0.0774,-35.630834 0.38315,-35.450941 0.21074,0.124023 4.10737,2.992395 8.65917,6.374207 4.55181,3.381804 11.24157,8.348165 14.86617,11.036351 3.62459,2.688181 10.59024,7.854513 15.47922,11.480733 4.88897,3.62622 10.03026,7.43385 11.42506,8.461377 1.39479,1.02754 2.49826,1.89934 2.45215,1.93734 -0.29478,0.24293 -53.0167,31.837315 -53.12731,31.837315 -0.0756,0 -0.13761,-16.05437 -0.13761,-35.676382 z"
       id="path62" />
    <use
       x="0"
       y="0"
       xlink:href="#g20"
       id="use62"
       transform="translate(-109.21405,0.40026967)"
       style="stroke:#393636;stroke-opacity:1" />
    <path
       style="fill:#f8f8f8;fill-opacity:1;stroke:none;stroke-width:5.80605e-05;stroke-dasharray:none;stroke-opacity:1"
       d="m 336.13162,139.12212 c -20.13448,-11.95425 -25.81236,-15.456 -25.511,-15.73356 0.68124,-0.62747 51.29659,-31.051315 51.43609,-30.917185 0.0736,0.0709 0.0977,14.056005 0.0537,31.078075 l -0.0801,30.94925 z"
       id="path69" />
    <path
       style="fill:#f8f8f8;fill-opacity:1;stroke:none;stroke-width:5.75373e-05;stroke-dasharray:none;stroke-opacity:1"
       d="M 352.4736,147.39891 C 332.26315,135.1103 319.5941,127.34237 315.79139,124.90753 l -3.99088,-2.5553 3.2803,-2.09238 c 3.69383,-2.35614 36.49837,-22.560685 42.57247,-26.220685 2.17034,-1.30776 4.00989,-2.31489 4.0879,-2.23807 0.0781,0.0768 0.10646,13.883525 0.0633,30.681595 l -0.0786,30.54191 z"
       id="path70" />
    <path
       style="fill:#ffffff;fill-opacity:1;stroke:#272727;stroke-width:2.81951e-05;stroke-dasharray:none;stroke-opacity:1"
       d="m 336.22904,138.62213 -24.04147,-14.22491 v -0.91766 -0.91769 l 18.75403,-11.26789 c 10.3147,-6.19736 21.17737,-12.722525 24.13927,-14.500395 l 5.38528,-3.23249 0.54976,0.26213 0.54976,0.26215 0.004,29.077735 0.004,29.07772 -0.54517,0.30799 c -0.29984,0.16939 -0.59294,0.30579 -0.65135,0.3031 -0.0584,-0.003 -10.92485,-6.40612 -24.14764,-14.22979 z"
       id="path73" />
    <g
       inkscape:label="Delaunay"
       id="g68"
       transform="matrix(1.6822428,0,0,1.6107384,213.0022,-29.620886)"
       style="fill:#3b2dff;fill-opacity:1;stroke:#272727;stroke-width:0.997002;stroke-dasharray:none;stroke-opacity:1">
      <path
         d="m 57,95.0625 31.875,-20 L 57,50.375 Z"
         style="fill:#6828ee;fill-opacity:1;stroke:#282727;stroke-width:0.997002;stroke-linecap:round;stroke-linejoin:round;stroke-dasharray:none;stroke-opacity:1"
         id="path63" />
      <path
         d="M 23.875,75.063 57,95.0625 V 50.375 Z"
         style="fill:#3c66d8;fill-opacity:1;stroke:#3d2e2d;stroke-width:0.997002;stroke-linecap:round;stroke-linejoin:round;stroke-dasharray:none;stroke-opacity:1"
         id="path64" />
      <path
         d="M 57,95.0625 88.875,114.75 V 75.0625 Z"
         style="fill:#3449df;fill-opacity:1;stroke:#272727;stroke-width:0.997002;stroke-linecap:round;stroke-linejoin:round;stroke-dasharray:none;stroke-opacity:1"
         id="path65" />
      <path
         d="M 23.875,114.75 57,95.0625 23.875,75.063 Z"
         style="fill:#38a4dc;fill-opacity:1;stroke:#4b3539;stroke-width:0.997002;stroke-linecap:round;stroke-linejoin:round;stroke-dasharray:none;stroke-opacity:1"
         id="path66" />
      <path
         d="m 57,139.75 31.875,-25 L 57,95.0625 Z"
         style="fill:#276bb4;fill-opacity:1;stroke:#312727;stroke-width:0.997002;stroke-linecap:round;stroke-linejoin:round;stroke-dasharray:none;stroke-opacity:1"
         id="path67" />
      <path
         d="M 23.875,114.75 57,139.75 V 95.0625 Z"
         style="fill:#943be5;fill-opacity:1;stroke:#313131;stroke-width:0.997002;stroke-linecap:round;stroke-linejoin:round;stroke-dasharray:none;stroke-opacity:1"
         id="path68" />
    </g>
    <path
       style="fill:#f8f8f8;fill-opacity:1;stroke:none;stroke-width:5.63905e-05;stroke-dasharray:none;stroke-opacity:1"
       d="M 200.65069,87.897118 V 53.827266 l 1.47828,1.125556 c 0.81305,0.619057 12.24954,9.111449 25.4144,18.871986 20.26817,15.02697 23.85802,17.797427 23.42641,18.079277 -1.42736,0.93208 -50.04116,30.062865 -50.16925,30.062865 -0.0824,0 -0.14984,-15.33142 -0.14984,-34.069832 z"
       id="path71" />
    <path
       style="fill:#f8f8f8;fill-opacity:1;stroke:none;stroke-width:5.63905e-05;stroke-dasharray:none;stroke-opacity:1"
       d="M 172.60421,107.07671 C 158.27443,98.784325 146.38731,91.907555 146.18836,91.794995 145.97214,91.672675 156.45114,84.006798 172.2425,72.7352 l 26.41582,-18.855159 0.0791,17.190418 c 0.0435,9.454729 0.0435,24.816316 0,34.136861 l -0.0791,16.94646 z"
       id="path72" />
    <path
       style="fill:#272727;fill-opacity:1;stroke:#d80b0b;stroke-width:0.000866228;stroke-dasharray:none"
       id="path3"
       sodipodi:type="arc"
       sodipodi:cx="199.6785"
       sodipodi:cy="51.520149"
       sodipodi:rx="3.1537602"
       sodipodi:ry="3.0197051"
       sodipodi:start="0"
       sodipodi:end="6.2643701"
       sodipodi:arc-type="slice"
       d="m 202.83226,51.520149 a 3.1537602,3.0197051 0 0 1 -3.13893,3.019672 3.1537602,3.0197051 0 0 1 -3.16845,-2.991264 3.1537602,3.0197051 0 0 1 3.10911,-3.047812 3.1537602,3.0197051 0 0 1 3.19771,2.962591 l -3.1532,0.05681 z" />
    <path
       style="fill:#272727;fill-opacity:1;stroke:#d80b0b;stroke-width:0.000866228;stroke-dasharray:none"
       id="path4"
       sodipodi:type="arc"
       sodipodi:cx="143.95419"
       sodipodi:cy="91.184586"
       sodipodi:rx="3.1537602"
       sodipodi:ry="3.0197051"
       sodipodi:start="0"
       sodipodi:end="6.2643701"
       sodipodi:arc-type="slice"
       d="m 147.10795,91.184586 a 3.1537602,3.0197051 0 0 1 -3.13892,3.019671 3.1537602,3.0197051 0 0 1 -3.16846,-2.991264 3.1537602,3.0197051 0 0 1 3.10912,-3.047812 3.1537602,3.0197051 0 0 1 3.19771,2.962592 l -3.15321,0.05681 z" />
    <path
       style="fill:#272727;fill-opacity:1;stroke:#d80b0b;stroke-width:0.000866228;stroke-dasharray:none"
       id="path5"
       sodipodi:type="arc"
       sodipodi:cx="143.95419"
       sodipodi:cy="155.21143"
       sodipodi:rx="3.1537602"
       sodipodi:ry="3.0197051"
       sodipodi:start="0"
       sodipodi:end="6.2643701"
       sodipodi:arc-type="slice"
       d="m 147.10795,155.21143 a 3.1537602,3.0197051 0 0 1 -3.13892,3.01967 3.1537602,3.0197051 0 0 1 -3.16846,-2.99127 3.1537602,3.0197051 0 0 1 3.10912,-3.04781 3.1537602,3.0197051 0 0 1 3.19771,2.96259 l -3.15321,0.0568 z" />
    <path
       style="fill:#272727;fill-opacity:1;stroke:#d80b0b;stroke-width:0.000866228;stroke-dasharray:none"
       id="path41"
       sodipodi:type="arc"
       sodipodi:cx="199.6785"
       sodipodi:cy="195.47986"
       sodipodi:rx="3.1537602"
       sodipodi:ry="3.0197051"
       sodipodi:start="0"
       sodipodi:end="6.2643701"
       sodipodi:arc-type="slice"
       d="m 202.83226,195.47986 a 3.1537602,3.0197051 0 0 1 -3.13893,3.01967 3.1537602,3.0197051 0 0 1 -3.16845,-2.99126 3.1537602,3.0197051 0 0 1 3.10911,-3.04782 3.1537602,3.0197051 0 0 1 3.19771,2.9626 l -3.1532,0.0568 z" />
    <path
       style="fill:#272727;fill-opacity:1;stroke:#d80b0b;stroke-width:0.000866228;stroke-dasharray:none"
       id="path6"
       sodipodi:type="arc"
       sodipodi:cx="199.6785"
       sodipodi:cy="195.47986"
       sodipodi:rx="3.1537602"
       sodipodi:ry="3.0197051"
       sodipodi:start="0"
       sodipodi:end="6.2643701"
       sodipodi:arc-type="slice"
       d="m 202.83226,195.47986 a 3.1537602,3.0197051 0 0 1 -3.13893,3.01967 3.1537602,3.0197051 0 0 1 -3.16845,-2.99126 3.1537602,3.0197051 0 0 1 3.10911,-3.04782 3.1537602,3.0197051 0 0 1 3.19771,2.9626 l -3.1532,0.0568 z" />
    <path
       style="fill:#272727;fill-opacity:1;stroke:#d80b0b;stroke-width:0.000866228;stroke-dasharray:none"
       id="path7"
       sodipodi:type="arc"
       sodipodi:cx="253.29997"
       sodipodi:cy="155.21143"
       sodipodi:rx="3.1537602"
       sodipodi:ry="3.0197051"
       sodipodi:start="0"
       sodipodi:end="6.2643701"
       sodipodi:arc-type="slice"
       d="m 256.45373,155.21143 a 3.1537602,3.0197051 0 0 1 -3.13892,3.01967 3.1537602,3.0197051 0 0 1 -3.16846,-2.99127 3.1537602,3.0197051 0 0 1 3.10912,-3.04781 3.1537602,3.0197051 0 0 1 3.1977,2.96259 l -3.1532,0.0568 z" />
    <path
       style="fill:#272727;fill-opacity:1;stroke:#d80b0b;stroke-width:0.000866228;stroke-dasharray:none"
       id="path8"
       sodipodi:type="arc"
       sodipodi:cx="253.29997"
       sodipodi:cy="91.285225"
       sodipodi:rx="3.1537602"
       sodipodi:ry="3.0197051"
       sodipodi:start="0"
       sodipodi:end="6.2643701"
       sodipodi:arc-type="slice"
       d="m 256.45373,91.285225 a 3.1537602,3.0197051 0 0 1 -3.13892,3.019672 3.1537602,3.0197051 0 0 1 -3.16846,-2.991264 3.1537602,3.0197051 0 0 1 3.10912,-3.047812 3.1537602,3.0197051 0 0 1 3.1977,2.962591 l -3.1532,0.05681 z" />
    <path
       style="fill:#272727;fill-opacity:1;stroke:#272727;stroke-width:0.000866228;stroke-dasharray:none;stroke-opacity:1"
       id="path2"
       sodipodi:type="arc"
       sodipodi:cx="199.6785"
       sodipodi:cy="123.50001"
       sodipodi:rx="3.1537602"
       sodipodi:ry="3.0197051"
       sodipodi:start="0"
       sodipodi:end="6.2643701"
       sodipodi:arc-type="slice"
       d="m 202.83226,123.50001 a 3.1537602,3.0197051 0 0 1 -3.13893,3.01967 3.1537602,3.0197051 0 0 1 -3.16845,-2.99126 3.1537602,3.0197051 0 0 1 3.10911,-3.04782 3.1537602,3.0197051 0 0 1 3.19771,2.96259 l -3.1532,0.0568 z" />
    <path
       style="fill:#ffffff;fill-opacity:1;stroke:#272727;stroke-width:4.18796e-05;stroke-dasharray:none;stroke-opacity:1"
       d="m 335.95309,139.35069 -25.05495,-14.96255 -0.12193,-0.97567 -0.12193,-0.97566 25.29031,-15.31975 c 22.96891,-13.913575 25.33192,-15.293525 25.74377,-15.033775 0.44946,0.28344 0.45398,0.55809 0.51095,30.894345 l 0.0576,30.6084 -0.51098,0.3796 c -0.28101,0.20878 -0.56196,0.37242 -0.62432,0.3636 -0.0625,-0.008 -11.3881,-6.74913 -25.16831,-14.97854 z"
       id="path74" />
    <path
       style="fill:#272727;fill-opacity:1;stroke:none;stroke-width:0.00102355;stroke-dasharray:none"
       id="path43"
       sodipodi:type="arc"
       sodipodi:cx="309.02426"
       sodipodi:cy="51.520149"
       sodipodi:rx="3.1542056"
       sodipodi:ry="3.0201342"
       sodipodi:start="0"
       sodipodi:end="6.2643701"
       sodipodi:arc-type="slice"
       d="m 312.17847,51.520149 a 3.1542056,3.0201342 0 0 1 -3.13937,3.020101 3.1542056,3.0201342 0 0 1 -3.1689,-2.991689 3.1542056,3.0201342 0 0 1 3.10955,-3.048245 3.1542056,3.0201342 0 0 1 3.19816,2.963012 l -3.15365,0.05682 z" />
    <path
       style="fill:#272727;fill-opacity:1;stroke:none;stroke-width:0.00102355;stroke-dasharray:none"
       id="path44"
       sodipodi:type="arc"
       sodipodi:cx="309.02426"
       sodipodi:cy="123.49918"
       sodipodi:rx="3.1542056"
       sodipodi:ry="3.0201342"
       sodipodi:start="0"
       sodipodi:end="6.2643701"
       sodipodi:arc-type="slice"
       d="m 312.17847,123.49918 a 3.1542056,3.0201342 0 0 1 -3.13937,3.0201 3.1542056,3.0201342 0 0 1 -3.1689,-2.99168 3.1542056,3.0201342 0 0 1 3.10955,-3.04825 3.1542056,3.0201342 0 0 1 3.19816,2.96301 l -3.15365,0.0568 z" />
    <path
       style="fill:#272727;fill-opacity:1;stroke:none;stroke-width:0.00102355;stroke-dasharray:none"
       id="path45"
       sodipodi:type="arc"
       sodipodi:cx="309.02426"
       sodipodi:cy="195.47986"
       sodipodi:rx="3.1542056"
       sodipodi:ry="3.0201342"
       sodipodi:start="0"
       sodipodi:end="6.2643701"
       sodipodi:arc-type="slice"
       d="m 312.17847,195.47986 a 3.1542056,3.0201342 0 0 1 -3.13937,3.0201 3.1542056,3.0201342 0 0 1 -3.1689,-2.99169 3.1542056,3.0201342 0 0 1 3.10955,-3.04825 3.1542056,3.0201342 0 0 1 3.19816,2.96302 l -3.15365,0.0568 z" />
    <path
       style="fill:#272727;fill-opacity:1;stroke:none;stroke-width:0.00102355;stroke-dasharray:none"
       id="path46"
       sodipodi:type="arc"
       sodipodi:cx="362.64575"
       sodipodi:cy="155.21143"
       sodipodi:rx="3.1542056"
       sodipodi:ry="3.0201342"
       sodipodi:start="0"
       sodipodi:end="6.2643701"
       sodipodi:arc-type="slice"
       d="m 365.79996,155.21143 a 3.1542056,3.0201342 0 0 1 -3.13937,3.0201 3.1542056,3.0201342 0 0 1 -3.1689,-2.99169 3.1542056,3.0201342 0 0 1 3.10955,-3.04825 3.1542056,3.0201342 0 0 1 3.19816,2.96301 l -3.15365,0.0568 z" />
    <path
       style="fill:#272727;fill-opacity:1;stroke:none;stroke-width:0.00102355;stroke-dasharray:none"
       id="path42"
       sodipodi:type="arc"
       sodipodi:cx="362.64575"
       sodipodi:cy="91.184586"
       sodipodi:rx="3.1542056"
       sodipodi:ry="3.0201342"
       sodipodi:start="0"
       sodipodi:end="6.2643701"
       sodipodi:arc-type="slice"
       d="m 365.79996,91.184586 a 3.1542056,3.0201342 0 0 1 -3.13937,3.0201 3.1542056,3.0201342 0 0 1 -3.1689,-2.991689 3.1542056,3.0201342 0 0 1 3.10955,-3.048245 3.1542056,3.0201342 0 0 1 3.19816,2.963012 l -3.15365,0.05682 z" />
    <use
       x="0"
       y="0"
       xlink:href="#g20"
       id="use73" />
  </g>
</svg>
